<svg xmlns="http://www.w3.org/2000/svg" xmlns:xlink="http://www.w3.org/1999/xlink" width="339px" height="775px" viewBox="-3 -3 197 442" version="1.1" transform="matrix(1, 0, 0, 1, 0, 0)"><g id="deeditor_bgCarrier" stroke-width="0">
    <rect id="dee_c_e" x="-3" y="-3" width="197" height="442" rx="0" fill="#ffffff" strokewidth="0"/>
  </g>
<g id="surface1">
<path style=" stroke:none;fill-rule:nonzero;fill:#f5f5dc;fill-opacity:1;" d="M 44.820312 17.492188 L 0.75 34.082031 L 9.910156 37.535156 L 19.144531 40.988281 L 18.996094 57.425781 C 18.917969 66.511719 18.769531 75.292969 18.621094 76.945312 C 18.394531 79.496094 18.621094 79.949219 19.894531 79.949219 C 21.324219 79.949219 21.324219 79.421875 21.097656 60.957031 C 21.023438 50.597656 21.171875 42.039062 21.472656 42.039062 C 21.773438 42.039062 37.390625 47.820312 56.234375 54.875 L 90.46875 67.636719 L 135.367188 50.820312 L 180.265625 34.082031 L 135.667969 17.414062 C 111.191406 8.257812 90.621094 0.75 90.019531 0.824219 C 89.417969 0.824219 69.148438 8.332031 44.820312 17.492188 Z M 44.820312 17.492188 "/>
<path style=" stroke:none;fill-rule:nonzero;fill:#f5f5dc;fill-opacity:1;" d="M 32.285156 78.222656 L 32.285156 103.96875 L 48.726562 135.5 L 65.167969 167.027344 L 115.695312 167.027344 L 132.136719 135.347656 L 148.65625 103.671875 L 148.65625 78.070312 C 148.65625 64.035156 148.503906 52.546875 148.355469 52.546875 C 148.207031 52.546875 135.515625 57.277344 120.050781 63.132812 C 104.585938 68.914062 91.296875 73.71875 90.46875 73.71875 C 89.644531 73.71875 76.355469 68.914062 60.890625 63.132812 C 45.421875 57.277344 32.734375 52.546875 32.585938 52.546875 C 32.433594 52.546875 32.285156 64.109375 32.285156 78.222656 Z M 32.285156 78.222656 "/>
<path style=" stroke:none;fill-rule:nonzero;fill:#f5f5dc;fill-opacity:1;" d="M 64.566406 191.199219 C 64.117188 192.777344 52.78125 231.886719 39.417969 278.128906 L 15.089844 362.207031 L 27.402344 374.21875 C 34.160156 380.824219 51.128906 397.414062 65.09375 411.078125 L 90.46875 435.925781 L 128.007812 399.140625 C 148.65625 378.949219 165.472656 362.058594 165.398438 361.53125 C 165.246094 361.082031 154.0625 322.046875 140.398438 274.828125 C 126.808594 227.683594 115.621094 188.875 115.621094 188.722656 C 115.621094 188.574219 104.285156 188.421875 90.46875 188.421875 L 65.394531 188.421875 Z M 64.566406 191.199219 "/>
</g>
</svg>