<svg xmlns="http://www.w3.org/2000/svg" version="1.0" width="254.000000pt" height="581.000000pt" viewBox="0 0 254.000000 581.000000" preserveAspectRatio="xMidYMid meet">

<g transform="translate(0.000000,581.000000) scale(0.100000,-0.100000)" fill="#7f55b1" stroke="none">
<path d="M597 5577 l-587 -221 122 -46 123 -46 -2 -219 c-1 -121 -3 -238 -5 -260 -3 -34 0 -40 17 -40 19 0 19 7 16 253 -1 138 1 252 5 252 4 0 212 -77 463 -171 l456 -170 598 224 598 223 -594 222 c-326 122 -600 222 -608 221 -8 0 -278 -100 -602 -222z" fill="#7f55b1"/>
<path d="M430 4768 l0 -343 219 -420 219 -420 336 0 337 0 219 422 220 422 0 341 c0 187 -2 340 -4 340 -2 0 -171 -63 -377 -141 -206 -77 -383 -141 -394 -141 -11 0 -188 64 -394 141 -206 78 -375 141 -377 141 -2 0 -4 -154 -4 -342z" fill="#7f55b1"/>
<path d="M860 3263 c-6 -21 -157 -542 -335 -1158 l-324 -1120 164 -160 c90 -88 316 -309 502 -491 l338 -331 500 490 c275 269 499 494 498 501 -2 6 -151 526 -333 1155 -181 628 -330 1145 -330 1147 0 2 -151 4 -335 4 l-334 0 -11 -37z" fill="#7f55b1"/>
</g>
</svg>